/* XPM */
static char *c30cceeafee1420dfba5731a16c46f02[] = {
/* columns rows colors chars-per-pixel */
"16 16 147 2 ",
"   c #23141A",
".  c #23151B",
"X  c #2A1C23",
"o  c #2E1C24",
"O  c #331825",
"+  c #3C1D2C",
"@  c #3E1F2E",
"#  c #332029",
"$  c #34212A",
"%  c #31242A",
"&  c #32242B",
"*  c #32252B",
"=  c #33272D",
"-  c #35262D",
";  c #3B212D",
":  c #3D212E",
">  c #36282F",
",  c #3A2730",
"<  c #3B2931",
"1  c #382A30",
"2  c #3B2932",
"3  c #3C2932",
"4  c #3F2D36",
"5  c #3E2E36",
"6  c #3E3036",
"7  c #402934",
"8  c #402E37",
"9  c #482A38",
"0  c #4B2A39",
"q  c #4F2C3C",
"w  c #52293C",
"e  c #512E3E",
"r  c #562C3F",
"t  c #5A283E",
"y  c #403138",
"u  c #47313B",
"i  c #43353C",
"p  c #45343C",
"a  c #47363E",
"s  c #48373F",
"d  c #51303F",
"f  c #572D40",
"g  c #5E2C41",
"h  c #4F3340",
"j  c #493740",
"k  c #493840",
"l  c #4A3941",
"z  c #483D42",
"x  c #4C3D44",
"c  c #553343",
"v  c #533443",
"b  c #533644",
"n  c #5A3245",
"m  c #523844",
"M  c #5C3648",
"N  c #5F3649",
"B  c #5E394A",
"V  c #593C49",
"C  c #642740",
"Z  c #602D43",
"A  c #672C44",
"S  c #6A2D46",
"D  c #702B46",
"F  c #742A46",
"G  c #772D49",
"H  c #623347",
"J  c #653147",
"K  c #663F51",
"L  c #6E3D52",
"P  c #783651",
"I  c #713D54",
"U  c #5B424E",
"Y  c #654654",
"T  c #7E4159",
"R  c #71485B",
"E  c #724C5D",
"W  c #615259",
"Q  c #61595D",
"!  c #655A5F",
"~  c #7E4A62",
"^  c #695860",
"/  c #705F67",
"(  c #6F6268",
")  c #7F767A",
"_  c #882E4E",
"`  c #893654",
"'  c #924A69",
"]  c #868083",
"[  c #8E8288",
"{  c #8C8689",
"}  c #9B8D94",
"|  c #939193",
" . c #B7919D",
".. c #A09FA0",
"X. c #A1A0A1",
"o. c #A3A1A2",
"O. c #A2A2A2",
"+. c #A3A3A4",
"@. c #A4A5A5",
"#. c #A5A6A6",
"$. c gray65",
"%. c #A6A6A7",
"&. c #A9A9A9",
"*. c #A9A9AA",
"=. c #AAAAAA",
"-. c #ABAAAB",
";. c #ABABAC",
":. c #ADAEAE",
">. c #AEAEAE",
",. c #AFB1B1",
"<. c #B7B2B5",
"1. c #B7B4B6",
"2. c #B8B0B4",
"3. c #B9B3B7",
"4. c #BBB6B9",
"5. c #BCB7BA",
"6. c #C1BCBF",
"7. c #C1BDBF",
"8. c #C2BDC0",
"9. c #C4BCC0",
"0. c #C4BDC1",
"q. c #BFCAC7",
"w. c #C6C1C4",
"e. c #C9C9CA",
"r. c #CACACB",
"t. c #CBCBCC",
"y. c #D6D7D7",
"u. c #D9D6D8",
"i. c #DBD6D8",
"p. c #E0DEE0",
"a. c #E1E2E2",
"s. c #E2E4E4",
"d. c #E6E5E6",
"f. c #E9E7E8",
"g. c #ECEAEC",
"h. c #F1F0F1",
"j. c #F1F1F2",
"k. c #F5F6F7",
"l. c #F7F7F8",
"z. c #F9FBFB",
"x. c #FAFBFB",
"c. c #FAFBFC",
"v. c #FAFCFC",
"b. c #FBFCFD",
"n. c #FDFEFF",
"m. c gray100",
"M. c None",
/* pixels */
"M.M.M.M.M.M.u M.M.M.M.M.M.M.M.M.",
"M.M.M.M.M.5.4.0.0.g.M.M.M.M.M.M.",
"M.M.M.M.m.m.m.m.m.l.j.l.f.M.M.M.",
"M.M.M.M.w.6.6.8.<.p.l.m.} m M.M.",
"M.M.M.8 2 2 3 # p d.c.i.V Y M.M.",
"M.M.s s s s s # 2.b.z./ v E R M.",
"M.M.s s s k 2 ( b.b.2.: b K ~ M.",
"M.k k j s s 4 u.m.j.U d B N I ' ",
"M.1 4 y y o ) a.s.[ + v n H J P ",
"M.* * = - i e.e.1.; 9 w r g A D ",
"M.M.* *   ] r.u.! @ e f Z S G M.",
"M.M.= X z -.&.{ O 0 w t C F _ M.",
"M.M.M.. | *.$.x 3 h N L T ` M.M.",
"M.M.M.M.*.O...+.%.@.@.*.q. .M.M.",
"M.M.M.M.>.>.>.,.*.+.+.O.M.M.M.M.",
"M.M.M.M.M.Q ! W M.M.M.M.M.M.M.M."
};
