/* XPM */
static char *fd8263ff61564604c1fc5a5e900985e4[] = {
/* columns rows colors chars-per-pixel */
"64 64 152 2 ",
"   c #2C1721",
".  c #2B1E24",
"X  c #321D26",
"o  c #361D29",
"O  c #3C1D2B",
"+  c #2E2127",
"@  c #2F2229",
"#  c #32252B",
"$  c #3A242E",
"%  c #36282F",
"&  c #3D2531",
"*  c #3C2D34",
"=  c #3E3137",
"-  c #421E2F",
";  c #412632",
":  c #4A2133",
">  c #422B36",
",  c #462D39",
"<  c #4B2D3B",
"1  c #532438",
"2  c #5B253C",
"3  c #532D3E",
"4  c #403037",
"5  c #45343C",
"6  c #48373F",
"7  c #63243E",
"8  c #68243F",
"9  c #562D40",
"0  c #5B2D41",
"q  c #4D3641",
"w  c #4B3A42",
"e  c #543744",
"r  c #593747",
"t  c #553946",
"y  c #5D3749",
"u  c #573E4A",
"i  c #593E4B",
"p  c #6C2541",
"a  c #632D44",
"s  c #6C2D46",
"d  c #722442",
"f  c #7C2445",
"g  c #732D49",
"h  c #7C2D4B",
"j  c #633046",
"k  c #64374B",
"l  c #6B364D",
"z  c #633A4D",
"x  c #71344E",
"c  c #743751",
"v  c #7A3753",
"b  c #743953",
"n  c #4D4147",
"m  c #53424A",
"M  c #5A434E",
"N  c #544A4F",
"B  c #5D4751",
"V  c #5E4953",
"C  c #654352",
"Z  c #684656",
"A  c #634855",
"S  c #694857",
"D  c #6D4859",
"F  c #77425A",
"G  c #78465C",
"H  c #74485C",
"J  c #7A485F",
"K  c #605158",
"L  c #62595D",
"P  c #7D4860",
"I  c #655E61",
"U  c #6B5D64",
"Y  c #715C66",
"T  c #795F6A",
"R  c #6B6467",
"E  c #73626A",
"W  c #756C71",
"Q  c #787275",
"!  c #7F777B",
"~  c #842D4D",
"^  c #8C2D4F",
"/  c #95244A",
"(  c #912C4E",
")  c #952D50",
"_  c #982D52",
"`  c #8F3A5D",
"'  c #8F4665",
"]  c #834863",
"[  c #8B4865",
"{  c #904463",
"}  c #9B4267",
"|  c #914867",
" . c #934969",
".. c #984D68",
"X. c #866875",
"o. c #83757C",
"O. c #93717F",
"+. c #867D82",
"@. c #8B7D84",
"#. c #957180",
"$. c #9C7081",
"%. c #A37586",
"&. c #AD7287",
"*. c #A77288",
"=. c #AC7588",
"-. c #AB7A8B",
";. c #868083",
":. c #8A8186",
">. c #8B8789",
",. c #8D898C",
"<. c #978D92",
"1. c #949193",
"2. c #9B9296",
"3. c #9A9698",
"4. c #9C999B",
"5. c #B48494",
"6. c #A3999D",
"7. c #A19FA0",
"8. c #A2A1A2",
"9. c #ABA1A6",
"0. c #A7A7A8",
"q. c #A9A6A8",
"w. c #A7A9A9",
"e. c #A9A9A9",
"r. c #B1AAAD",
"t. c #B2AFB0",
"y. c #B3B2B3",
"u. c #B9B4B7",
"i. c #B8B7B8",
"p. c #BFBEBF",
"a. c #C1BBBE",
"s. c #C2BFC1",
"d. c #C4C3C4",
"f. c #C7CDCB",
"g. c #CBCCCC",
"h. c #D2CFD1",
"j. c #CBD7D3",
"k. c #D6D3D5",
"l. c #DAD7D9",
"z. c #DCDADC",
"x. c #DFDFE0",
"c. c #E0DFE0",
"v. c #E3E2E4",
"b. c #EDEDEE",
"n. c #EFEFF0",
"m. c #F0EFF0",
"M. c #EFF0F1",
"N. c #F2F2F3",
"B. c #F6F7F8",
"V. c #F7F8F9",
"C. c #F9FAFB",
"Z. c None",
/* pixels */
"Z.Z.Z.Z.Z.Z.Z.Z.Z.Z.Z.Z.Z.Z.Z.Z.Z.Z.Z.Z.Z.Z.w B Z.Z.Z.Z.Z.Z.Z.Z.Z.Z.Z.Z.Z.Z.Z.Z.Z.Z.Z.Z.Z.Z.Z.Z.Z.Z.Z.Z.Z.Z.Z.Z.Z.Z.Z.Z.Z.Z.Z.Z.",
"Z.Z.Z.Z.Z.Z.Z.Z.Z.Z.Z.Z.Z.Z.Z.Z.Z.Z.Z.Z.Z.6 6 w M A V Z.Z.Z.Z.Z.Z.Z.Z.Z.Z.Z.Z.Z.Z.Z.Z.Z.Z.Z.Z.Z.Z.Z.Z.Z.Z.Z.Z.Z.Z.Z.Z.Z.Z.Z.Z.Z.",
"Z.Z.Z.Z.Z.Z.Z.Z.Z.Z.Z.Z.Z.Z.Z.Z.Z.Z.Z.Z.Z.6 6 5 6 m V B V B Z.Z.Z.Z.Z.Z.Z.Z.Z.Z.Z.Z.Z.Z.Z.Z.Z.Z.Z.Z.Z.Z.Z.Z.Z.Z.Z.Z.Z.Z.Z.Z.Z.Z.",
"Z.Z.Z.Z.Z.Z.Z.Z.Z.Z.Z.Z.Z.Z.Z.Z.Z.Z.Z.Z.w w 6 w w 5 m A A V V A V A Z.Z.Z.Z.Z.Z.Z.Z.Z.Z.Z.Z.Z.Z.Z.Z.Z.Z.Z.Z.Z.Z.Z.Z.Z.Z.Z.Z.Z.Z.",
"Z.Z.Z.Z.Z.Z.Z.Z.Z.Z.Z.Z.Z.Z.Z.Z.Z.Z.Z.k.h.h.h.h.h.h.h.k.l.l.l.l.l.l.k.v.B.Z.Z.Z.Z.Z.Z.Z.Z.Z.Z.Z.Z.Z.Z.Z.Z.Z.Z.Z.Z.Z.Z.Z.Z.Z.Z.Z.",
"Z.Z.Z.Z.Z.Z.Z.Z.Z.Z.Z.Z.Z.Z.Z.Z.Z.Z.Z.N.N.N.B.N.N.B.N.N.B.V.V.V.B.B.V.B.N.N.N.N.Z.Z.Z.Z.Z.Z.Z.Z.Z.Z.Z.Z.Z.Z.Z.Z.Z.Z.Z.Z.Z.Z.Z.Z.",
"Z.Z.Z.Z.Z.Z.Z.Z.Z.Z.Z.Z.Z.Z.Z.Z.Z.Z.b.b.m.b.b.b.b.b.b.b.b.b.N.N.N.N.N.N.N.N.N.N.N.N.N.N.Z.Z.Z.Z.Z.Z.Z.Z.Z.Z.Z.Z.Z.Z.Z.Z.Z.Z.Z.Z.",
"Z.Z.Z.Z.Z.Z.Z.Z.Z.Z.Z.Z.Z.Z.Z.Z.Z.b.b.b.b.b.b.b.b.b.b.b.b.b.b.m.N.N.N.N.N.N.N.N.N.N.N.N.N.N.N.Z.Z.Z.Z.Z.Z.Z.Z.Z.Z.Z.Z.Z.Z.Z.Z.Z.",
"Z.Z.Z.Z.Z.Z.Z.Z.Z.Z.Z.Z.Z.Z.Z.Z.b.b.b.b.b.b.b.b.b.b.b.b.b.b.b.b.N.N.N.N.N.N.N.N.N.N.N.N.N.N.N.N.N.B.Z.Z.Z.Z.Z.Z.Z.Z.Z.Z.Z.Z.Z.Z.",
"Z.Z.Z.Z.Z.Z.Z.Z.Z.Z.Z.Z.Z.Z.Z.Z.b.b.b.b.b.b.b.b.b.b.b.b.b.b.b.b.b.b.N.N.N.N.N.N.N.N.N.N.N.N.N.N.N.V.k.A B Z.Z.Z.Z.Z.Z.Z.Z.Z.Z.Z.",
"Z.Z.Z.Z.Z.Z.Z.Z.Z.Z.Z.Z.Z.Z.Z.b.b.b.b.b.b.b.b.b.b.b.b.b.b.b.b.b.b.b.b.N.N.N.N.N.N.N.N.N.N.N.N.N.N.B.o.u V B Z.Z.Z.Z.Z.Z.Z.Z.Z.Z.",
"Z.Z.Z.Z.Z.Z.Z.Z.Z.Z.Z.Z.Z.Z.l.N.b.b.b.b.b.b.b.b.b.b.b.b.b.b.b.b.b.b.b.b.N.N.N.N.N.N.N.N.N.N.N.N.C.a.u B V A Z.Z.Z.Z.Z.Z.Z.Z.Z.Z.",
"Z.Z.Z.Z.Z.Z.Z.Z.Z.Z.Z.Z.Z.Z.a.C.N.N.N.B.N.B.N.N.N.N.N.N.N.N.N.B.N.N.N.N.N.m.N.N.N.m.N.N.N.N.N.B.b.Y M A A B A Z.Z.Z.Z.Z.Z.Z.Z.Z.",
"Z.Z.Z.Z.Z.Z.Z.Z.Z.Z.Z.Z.Z.5 t.z.k.k.k.k.k.k.k.k.k.k.k.k.k.k.k.k.k.k.k.h.v.m.m.N.N.N.N.N.N.N.B.C.6.t A V V B A Z.Z.Z.Z.Z.Z.Z.Z.Z.",
"Z.Z.Z.Z.Z.Z.Z.Z.Z.Z.Z.Z.6 6 w w w w w w w e w w w w w w w w w w w w 6 n h.N.b.b.N.N.N.N.N.N.V.z.A B B A A A S Z.Z.Z.Z.Z.Z.Z.Z.Z.",
"Z.Z.Z.Z.Z.Z.Z.Z.Z.Z.Z.Z.6 6 6 6 6 5 6 6 5 6 5 6 6 6 6 6 5 6 6 5 6 6 * 2.V.m.b.b.b.m.N.N.N.N.V.@.m B A A A A A S Z.Z.Z.Z.Z.Z.Z.Z.",
"Z.Z.Z.Z.Z.Z.Z.Z.Z.Z.Z.6 6 6 6 6 6 6 w 6 6 6 6 6 6 6 6 6 6 6 6 6 6 5 V b.m.b.b.b.b.b.N.N.B.C.s.i A A A A A S A S Z.Z.Z.Z.Z.Z.Z.Z.",
"Z.Z.Z.Z.Z.Z.Z.Z.Z.Z.6 6 6 6 6 6 6 6 5 6 6 6 6 6 6 6 6 6 6 6 6 6 6 4 u.B.n.b.b.b.b.b.b.n.B.N.T M A A A A S Z S S S Z.Z.Z.Z.Z.Z.Z.",
"Z.Z.Z.Z.Z.Z.Z.Z.Z.6 w 5 6 6 6 6 6 6 6 6 6 6 6 5 6 6 6 6 6 6 6 6 * W B.b.b.b.b.b.b.b.b.b.B.9.i A A S Z Z Z S D D D Z.Z.Z.Z.Z.Z.Z.",
"Z.Z.Z.Z.Z.Z.Z.Z.Z.w 5 w 6 6 6 6 6 6 6 6 6 6 6 w 6 6 6 6 6 6 6 5 q h.N.b.b.b.b.b.b.b.n.N.l.u i A S S Z Z Z S D D D D Z.Z.Z.Z.Z.Z.",
"Z.Z.Z.Z.Z.Z.Z.Z.6 6 6 5 6 6 6 6 6 6 w 5 6 6 6 6 6 6 6 6 6 6 6 * <.V.n.b.b.b.b.b.b.b.n.B.o.> e i S A Z D D D D D D H Z.Z.Z.Z.Z.Z.",
"Z.Z.Z.Z.Z.Z.Z.6 6 6 6 5 6 6 6 6 6 w 5 w 6 6 w 5 6 6 6 6 6 6 5 N v.N.b.b.b.b.b.b.b.b.B.s.5 q q q u S D D D D D H H H H Z.Z.Z.Z.Z.",
"Z.Z.Z.Z.Z.Z.Z.6 6 6 6 6 6 6 6 6 6 6 w 5 w 5 w 5 6 6 6 6 6 6 > r.B.b.b.b.b.b.b.b.b.n.n.U , w e e q t Z D D D H D H H H Z.Z.Z.Z.Z.",
"Z.Z.Z.Z.Z.Z.6 6 6 6 6 6 6 6 6 6 5 6 5 w 5 w 5 w 6 6 6 6 6 > E N.n.b.b.b.b.b.b.b.b.B.9.> q e q e e e t C H H H H H J P Z.Z.Z.Z.Z.",
"Z.Z.Z.Z.Z.6 6 6 6 6 6 6 6 6 6 6 w 6 6 6 6 6 6 6 6 6 6 6 6 6 g.B.b.b.b.b.b.b.b.b.N.x.i 5 e e e e t t t r C H G G P J J P Z.Z.Z.Z.",
"Z.Z.Z.Z.Z.6 6 6 6 6 6 6 6 6 6 6 6 6 6 6 6 6 6 6 6 6 6 6 * :.B.b.b.b.b.b.b.b.b.b.B.@., e e e e e e t r r r z G P J P J ] Z.Z.Z.Z.",
"Z.Z.Z.Z.6 6 6 6 6 6 6 6 6 6 6 6 6 6 6 6 6 6 6 6 6 6 6 5 m c.N.b.b.b.b.b.b.b.b.B.g.q q e e e e e r t r r r r z F P ] ] ] ] Z.Z.Z.",
"Z.Z.Z.6 6 6 6 6 6 6 6 6 6 6 6 6 6 w 5 6 6 6 6 6 6 6 6 * q.V.b.b.b.b.b.b.b.b.b.N.E , e e e e e t r r r y y y y z G ] ] ] [ Z.Z.Z.",
"Z.Z.6 6 6 6 6 6 6 6 6 6 6 6 6 6 6 6 6 6 6 6 6 6 6 6 4 U m.b.b.b.b.b.b.b.b.b.V.r., e e e e r r r r r y y y z z k z F [ [ [ [ Z.Z.",
"Z.Z.6 6 6 6 6 6 6 6 6 6 6 6 6 6 6 6 6 6 5 6 6 6 6 6 5 s.V.b.b.b.b.b.b.b.b.N.v.B < e e t e t r r y y y y z y k k k z b [ | | Z.Z.",
"Z.5 6 q w 6 6 6 w 6 6 6 6 6 6 6 w 5 6 5 w 6 6 6 w * o.V.b.b.b.b.b.b.b.b.b.C.<., e e e r r r r y y y z k y l l z c l k v { ..Z.Z.",
"Z.# * 4 * 5 = 5 = 5 5 5 5 5 5 5 5 6 6 6 5 6 5 6 5 n z.B.b.N.b.N.n.m.m.m.B.h.e e t r t t r r y y k y k k l z l l l l c c v { } Z.",
"Z.+ # % % = = % * * * * * * * = * * * = * = * * # :.k.g.g.g.h.h.k.k.k.l.x.E > e q e e e 9 r y y y k k k l l l l b b c v c v ` Z.",
"Z.Z.# # # % % = * * * * * * * * * * * * * * * % m d.d.d.d.d.d.d.d.d.s.f.1.$ > > , , < < < < < 3 3 3 9 0 0 y 0 j j k l s x x g *.",
"Z.Z.Z.% # # % % % * * * * * * * * * * * * * * % 4.g.d.d.d.d.d.d.d.d.d.d.m ; , , < , < < < 3 < 3 3 3 9 9 0 2 0 0 a a a a s s 7 Z.",
"Z.Z.Z.# # # # # # # % * = * * * * * * * * * X R g.d.d.d.d.d.d.d.d.d.g.o.& , , , < < < < 3 < 3 3 3 9 9 0 9 0 a a a a a s s s p Z.",
"Z.Z.Z.Z.# # # # # # # % % = = * * * * * * * = t.g.d.d.d.d.d.d.d.d.f.t., > , , < < < < < 3 3 3 3 9 0 0 0 a 0 a a s s s s s g Z.Z.",
"Z.Z.Z.Z.# # # # # # # # # # % * = * * * > # ! g.d.d.d.d.d.d.d.d.d.g.Y & , , < , < < < 3 3 3 9 9 3 0 0 0 a a a j s s s g g h Z.Z.",
"Z.Z.Z.Z.Z.% # # # # # # # # # % % * * = % n a.d.d.d.d.d.d.d.d.d.g.6.& , , , < < < < 3 3 3 3 9 9 0 0 a 0 a a s s s s g g g Z.Z.Z.",
"Z.Z.Z.Z.Z.Z.# # # # # # # # # # # # % % $ 4.g.d.d.d.d.d.d.d.d.d.d.M ; , < , < < < 3 < 3 3 3 9 0 0 0 a a a a s s s g g h h Z.Z.Z.",
"Z.Z.Z.Z.Z.Z.# # # # # # # # # # # # # + N p.d.d.d.d.d.d.d.d.d.g.+.$ , , < , < < < 3 < 9 3 0 9 0 0 a a a a s s g g g h h Z.Z.Z.Z.",
"Z.Z.Z.Z.Z.Z.Z.# # # # # # # # # # # # # ,.0.w.i.d.d.d.d.d.d.f.u.q > , < , < < < 3 3 3 9 9 0 9 0 a a a j s s g g h h h ~ Z.Z.Z.Z.",
"Z.Z.Z.Z.Z.Z.Z.% # # # # # # # # # # . I e.7.8.7.w.y.d.d.d.d.g.E $ , , < < < < < < 3 9 9 2 0 9 a a a a s s s g h h h ~ Z.Z.Z.Z.Z.",
"Z.Z.Z.Z.Z.Z.Z.Z.# # # # # # # # # + = 4.w.8.8.8.8.4.0.y.d.g.8.> , , , < < < 3 3 3 9 3 9 0 0 0 0 a a s s g g g h h ~ ~ Z.Z.Z.Z.Z.",
"Z.Z.Z.Z.Z.Z.Z.Z.Z.# # # # # # # # + Q e.7.7.8.8.8.8.8.6.0.t.V ; , , , < < < < 3 3 9 9 0 0 0 a a a a s s g g h h ~ ~ Z.Z.Z.Z.Z.Z.",
"Z.Z.Z.Z.Z.Z.Z.Z.Z.# # # # # # # + n 0.8.8.8.8.8.8.8.8.8.w.W X * > , < < < < 3 < 3 9 9 0 0 a a a s s g g g h h ~ ^ ^ Z.Z.Z.Z.Z.Z.",
"Z.Z.Z.Z.Z.Z.Z.Z.Z.Z.# # # # # # + >.w.7.8.8.8.8.8.8.8.8.3.4 # $ & & , < 9 3 3 3 9 9 9 9 0 a a a s s g g h h ~ ~ ^ ^ Z.Z.Z.Z.Z.Z.",
"Z.Z.Z.Z.Z.Z.Z.Z.Z.Z.# # # # @ + L 0.8.8.8.7.8.8.8.8.8.0.L X % $ & & & ; , < 3 9 9 9 9 a a a a s s g g g h h ~ ^ ) Z.Z.Z.Z.Z.Z.Z.",
"Z.Z.Z.Z.Z.Z.Z.Z.Z.Z.Z.# # # # * 3.8.8.8.8.8.7.8.8.8.w.,.# $ $ $ & & & ; & : < 3 0 2 0 0 a a j s s g g h ~ ~ ~ ( ) Z.Z.Z.Z.Z.Z.Z.",
"Z.Z.Z.Z.Z.Z.Z.Z.Z.Z.Z.Z.# # . W e.8.8.8.8.8.8.8.8.8.8.w   X o o o o O O O O O - : 1 2 2 2 2 7 p p d d f f ~ ( ) Z.Z.Z.Z.Z.Z.Z.Z.",
"Z.Z.Z.Z.Z.Z.Z.Z.Z.Z.Z.Z.# + n 8.8.8.8.8.8.8.8.8.8.0.1.L U U I U U U U U U Y R Y Y Y E X.O.O.#.#.#.$.$.$.%...) _ Z.Z.Z.Z.Z.Z.Z.Z.",
"Z.Z.Z.Z.Z.Z.Z.Z.Z.Z.Z.Z.Z.. ;.w.8.8.7.8.8.8.8.8.8.8.8.e.e.e.e.w.w.e.e.e.0.0.e.e.e.e.w.w.y.d.g.g.g.f.g.g.j.-./ Z.Z.Z.Z.Z.Z.Z.Z.Z.",
"Z.Z.Z.Z.Z.Z.Z.Z.Z.Z.Z.Z.Z.R w.8.8.8.8.8.8.8.8.8.8.8.8.8.8.7.7.8.8.8.8.8.7.8.8.8.8.8.8.8.7.7.0.i.d.d.d.d.f.=./ Z.Z.Z.Z.Z.Z.Z.Z.Z.",
"Z.Z.Z.Z.Z.Z.Z.Z.Z.Z.Z.Z.Z.Z.8.8.8.8.7.8.7.8.8.8.8.8.8.8.8.8.8.8.8.8.8.8.8.8.8.8.8.8.8.8.8.8.8.4.w.y.d.d.f.=.Z.Z.Z.Z.Z.Z.Z.Z.Z.Z.",
"Z.Z.Z.Z.Z.Z.Z.Z.Z.Z.Z.Z.Z.Z.Z.8.8.8.8.8.8.8.8.8.8.8.8.8.8.8.7.8.8.8.8.8.8.8.8.7.8.8.8.8.8.8.8.8.8.7.8.t.d.5.Z.Z.Z.Z.Z.Z.Z.Z.Z.Z.",
"Z.Z.Z.Z.Z.Z.Z.Z.Z.Z.Z.Z.Z.Z.Z.8.7.8.8.8.8.8.7.8.8.8.8.7.8.8.8.8.8.8.8.8.8.8.8.8.8.8.8.8.8.8.8.8.8.8.8.7.Z.Z.Z.Z.Z.Z.Z.Z.Z.Z.Z.Z.",
"Z.Z.Z.Z.Z.Z.Z.Z.Z.Z.Z.Z.Z.Z.Z.Z.8.8.8.8.8.8.8.8.8.8.8.8.8.8.8.8.8.8.8.8.8.8.8.8.8.8.8.8.8.8.8.8.8.Z.Z.Z.Z.Z.Z.Z.Z.Z.Z.Z.Z.Z.Z.Z.",
"Z.Z.Z.Z.Z.Z.Z.Z.Z.Z.Z.Z.Z.Z.Z.Z.8.8.8.8.7.8.8.8.7.8.8.8.8.8.8.8.8.7.8.8.8.8.8.7.8.8.8.8.8.Z.Z.Z.Z.Z.Z.Z.Z.Z.Z.Z.Z.Z.Z.Z.Z.Z.Z.Z.",
"Z.Z.Z.Z.Z.Z.Z.Z.Z.Z.Z.Z.Z.Z.Z.Z.Z.8.8.8.8.8.8.8.8.8.7.7.8.8.8.8.8.8.8.8.8.8.8.8.8.8.Z.Z.Z.Z.Z.Z.Z.Z.Z.Z.Z.Z.Z.Z.Z.Z.Z.Z.Z.Z.Z.Z.",
"Z.Z.Z.Z.Z.Z.Z.Z.Z.Z.Z.Z.Z.Z.Z.Z.Z.Z.w.w.0.0.0.0.0.w.0.0.0.0.0.e.0.8.8.8.8.8.Z.Z.Z.Z.Z.Z.Z.Z.Z.Z.Z.Z.Z.Z.Z.Z.Z.Z.Z.Z.Z.Z.Z.Z.Z.Z.",
"Z.Z.Z.Z.Z.Z.Z.Z.Z.Z.Z.Z.Z.Z.Z.Z.Z.Z.;.;.;.+.;.;.;.;.;.;.+.+.:.+.;.3.Z.Z.Z.Z.Z.Z.Z.Z.Z.Z.Z.Z.Z.Z.Z.Z.Z.Z.Z.Z.Z.Z.Z.Z.Z.Z.Z.Z.Z.Z.",
"Z.Z.Z.Z.Z.Z.Z.Z.Z.Z.Z.Z.Z.Z.Z.Z.Z.Z.Z.@ @ @ @ o X # o $ $ $ $ Z.Z.Z.Z.Z.Z.Z.Z.Z.Z.Z.Z.Z.Z.Z.Z.Z.Z.Z.Z.Z.Z.Z.Z.Z.Z.Z.Z.Z.Z.Z.Z.Z.",
"Z.Z.Z.Z.Z.Z.Z.Z.Z.Z.Z.Z.Z.Z.Z.Z.Z.Z.Z.@ @ @ @ # $ # # Z.Z.Z.Z.Z.Z.Z.Z.Z.Z.Z.Z.Z.Z.Z.Z.Z.Z.Z.Z.Z.Z.Z.Z.Z.Z.Z.Z.Z.Z.Z.Z.Z.Z.Z.Z.Z.",
"Z.Z.Z.Z.Z.Z.Z.Z.Z.Z.Z.Z.Z.Z.Z.Z.Z.Z.Z.Z.6 6 6 Z.Z.Z.Z.Z.Z.Z.Z.Z.Z.Z.Z.Z.Z.Z.Z.Z.Z.Z.Z.Z.Z.Z.Z.Z.Z.Z.Z.Z.Z.Z.Z.Z.Z.Z.Z.Z.Z.Z.Z.Z."
};
