/* XPM */
static char *_1dc4d49565e44e8d0c9051b1e6f4acc[] = {
/* columns rows colors chars-per-pixel */
"32 32 124 2 ",
"   c #2C1E25",
".  c #321D26",
"X  c #2D2026",
"o  c #32252B",
"O  c #3A232E",
"+  c #36292F",
"@  c #3E2531",
"#  c #372930",
"$  c #3C2D34",
"%  c #412633",
"&  c #482434",
"*  c #432B36",
"=  c #472E3A",
"-  c #4B2D3B",
";  c #52273A",
":  c #532D3E",
">  c #5C293F",
",  c #46343D",
"<  c #48373F",
"1  c #572D40",
"2  c #5B2D41",
"3  c #4C3741",
"4  c #463B40",
"5  c #4B3A42",
"6  c #543644",
"7  c #5A3546",
"8  c #573846",
"9  c #5C3748",
"0  c #563E48",
"q  c #5A3949",
"w  c #6F2744",
"e  c #632C43",
"r  c #6A2D46",
"t  c #6F2D48",
"y  c #772746",
"u  c #712945",
"i  c #782947",
"p  c #742D49",
"a  c #7E2D4B",
"s  c #63354A",
"d  c #6D354D",
"f  c #63384B",
"g  c #6A384E",
"h  c #72314C",
"j  c #663F51",
"k  c #6A3B50",
"l  c #723851",
"z  c #504048",
"x  c #5B444F",
"c  c #5D4650",
"v  c #5C4D55",
"b  c #5C5257",
"n  c #5E5358",
"m  c #634553",
"M  c #644956",
"N  c #694857",
"B  c #654F59",
"V  c #6D485A",
"C  c #74485C",
"Z  c #78495E",
"A  c #615259",
"S  c #69555E",
"D  c #7E4760",
"F  c #7D4960",
"G  c #6B5C63",
"H  c #73666C",
"J  c #706A6D",
"K  c #776E72",
"L  c #7A6A72",
"P  c #852C4D",
"I  c #8C2D4F",
"U  c #96294E",
"Y  c #912D50",
"T  c #8A405F",
"R  c #844561",
"E  c #8E4665",
"W  c #834962",
"Q  c #995772",
"!  c #836F78",
"~  c #827B7E",
"^  c #867E82",
"/  c #8A7E84",
"(  c #AA7C8D",
")  c #848082",
"_  c #8E878A",
"`  c #8F8B8D",
"'  c #93848C",
"]  c #968D91",
"[  c #988A91",
"{  c #979597",
"}  c #9D989B",
"|  c #A19097",
" . c #AC99A2",
".. c #B29DA6",
"X. c #A2A2A3",
"o. c #ABA1A6",
"O. c #A7A7A8",
"+. c #A8A8A9",
"@. c #BCA0A9",
"#. c #B3AAAE",
"$. c #B3ADB0",
"%. c #B8AFB4",
"&. c #AEB0B0",
"*. c #B7B6B7",
"=. c #B8B2B6",
"-. c #BCBCBD",
";. c #C4C3C4",
":. c #C8C7C8",
">. c #CCCBCC",
",. c #D0CCCE",
"<. c #D2CDD0",
"1. c #CAD2D0",
"2. c #D3D2D3",
"3. c #D9D7D9",
"4. c #DBDADB",
"5. c #E1DEE0",
"6. c #E4E2E4",
"7. c #EDEDEE",
"8. c #EFEFF0",
"9. c #F2F3F4",
"0. c #F7F7F8",
"q. c #F7F8F9",
"w. c #F9FBFB",
"e. c None",
/* pixels */
"e.e.e.e.e.e.e.e.e.e.e.5 c e.e.e.e.e.e.e.e.e.e.e.e.e.e.e.e.e.e.e.",
"e.e.e.e.e.e.e.e.e.e.z 5 z A B B e.e.e.e.e.e.e.e.e.e.e.e.e.e.e.e.",
"e.e.e.e.e.e.e.e.e.4.3.3.4.4.5.6.5.6.9.e.e.e.e.e.e.e.e.e.e.e.e.e.",
"e.e.e.e.e.e.e.e.e.8.9.9.9.9.9.9.q.q.8.9.9.9.9.e.e.e.e.e.e.e.e.e.",
"e.e.e.e.e.e.e.e.8.7.7.8.8.8.8.8.8.9.9.9.9.9.9.9.w.o.e.e.e.e.e.e.",
"e.e.e.e.e.e.e.7.9.9.9.8.8.8.8.9.9.9.9.9.9.8.9.w.6.S c e.e.e.e.e.",
"e.e.e.e.e.e.e.;.6.4.4.4.4.4.4.4.4.3.7.8.9.9.9.w.[ x M e.e.e.e.e.",
"e.e.e.e.e.e.3 5 z z z z z z z z 5 G 7.8.9.9.w.<.c m M N e.e.e.e.",
"e.e.e.e.e.< < < , , , , , , , , $ *.0.7.8.8.0.! x m N N e.e.e.e.",
"e.e.e.e.e.< < < < < < < < < < $ L 9.8.7.8.0.#.9 M N N V V e.e.e.",
"e.e.e.e.< < < < < < < < < < , 5 2.0.7.7.8.6.c < m V V V V e.e.e.",
"e.e.e.< < < < < < < < < < < $ ] 0.8.8.8.0.] * 6 6 m C C Z Z e.e.",
"e.e.< < < < < < < < < < < , v 6.9.7.7.9.,.6 3 6 8 6 j Z F W e.e.",
"e.e.< < < < < < < < < < < $ &.w.8.7.8.9.L = 6 6 6 9 7 k D W e.e.",
"e., 5 < < < 4 5 < < < , $ J 9.8.8.8.w.=.= 6 8 9 9 9 9 f k R E e.",
"G $ , , , , , , < , < 4 < >.9.8.8.8.7.B 3 8 9 9 9 g g g d l T e.",
"e.X + $ $ $ $ $ $ $ $ o K 2.:.:.>.3./ @ 3 : 6 6 2 7 s s d d h Q ",
"e.X o + # $ $ $ $ $ # < *.:.:.;.:.#.= * - - - ; 1 1 2 2 e r r R ",
"e.e.o o o + + # $ $ o _ ,.;.;.:.>.G @ - - - : 1 1 2 2 e r t w e.",
"e.e.e.o o o o o + + v :.:.;.;.>.} @ = - - - 1 2 2 e r r t p i e.",
"e.e.e.o o o o o o X ` ;.;.:.:.;.c % - - - 1 1 2 e e r p p a e.e.",
"e.e.e.e.o o o o   b O.X.o.*.>.) @ - - - 1 1 2 2 e r t p P P e.e.",
"e.e.e.e.o o o o # { X.X.X.O.} = * - - : : 1 2 e r t p a I e.e.e.",
"e.e.e.e.e.o o X J +.X.X.X.+.b . @ * - 1 1 2 e e t h a P Y e.e.e.",
"e.e.e.e.e.e.X 4 X.X.X.X.O.~ . . O O O & ; e > e w y P I e.e.e.e.",
"e.e.e.e.e.e.X ) O.X.X.X.X.` ~ ~ ~ ^ / ^ / / |  .....( U e.e.e.e.",
"e.e.e.e.e.e.e.O.X.X.X.X.X.O.O.O.o.O.O.O.o.O.O.&.-.1.@.e.e.e.e.e.",
"e.e.e.e.e.e.e.X.X.X.X.X.X.X.X.X.X.X.X.X.X.X.X.X.X.+.#.e.e.e.e.e.",
"e.e.e.e.e.e.e.e.X.X.X.X.X.X.X.X.X.X.X.X.X.X.X.e.e.e.e.e.e.e.e.e.",
"e.e.e.e.e.e.e.e.e.+.O.O.O.+.O.+.O.X.X.X.e.e.e.e.e.e.e.e.e.e.e.e.",
"e.e.e.e.e.e.e.e.e.b b b n A A v e.e.e.e.e.e.e.e.e.e.e.e.e.e.e.e.",
"e.e.e.e.e.e.e.e.e.e.+ + O e.e.e.e.e.e.e.e.e.e.e.e.e.e.e.e.e.e.e."
};
